<?xml version="1.0" encoding="UTF-8"?>
<svg id="Layer_1" data-name="Layer 1" xmlns="http://www.w3.org/2000/svg" viewBox="0 0 256 256">
  <defs>
    <style>
      .cls-1 {
        fill: #ed7326;
      }

      .cls-1, .cls-2 {
        stroke: #000;
        stroke-miterlimit: 10;
      }

      .cls-2 {
        fill: #fff;
      }
    </style>
  </defs>
  <rect class="cls-2" x="126" y="148" width="4" height="8"/>
  <rect class="cls-2" x="126" y="100" width="4" height="8"/>
  <rect class="cls-2" x="100" y="126" width="8" height="4"/>
  <rect class="cls-2" x="148" y="126" width="8" height="4"/>
  <rect class="cls-2" x="142.96" y="140.97" width="4" height="8" transform="translate(-60.05 144.96) rotate(-45)"/>
  <rect class="cls-2" x="109.02" y="107.03" width="4" height="8" transform="translate(-45.99 111.02) rotate(-45)"/>
  <rect class="cls-2" x="107.03" y="142.97" width="8" height="4" transform="translate(-69.99 120.97) rotate(-45)"/>
  <rect class="cls-2" x="140.97" y="109.03" width="8" height="4" transform="translate(-36.05 135.03) rotate(-45)"/>
  <path class="cls-2" d="M153.47,196.04c-7.24,0-15.42-2.77-23.98-8.23-13.37-8.52-26.19-22.67-36.1-39.83s-15.75-35.33-16.45-51.17c-.72-16.31,4.09-28.3,13.55-33.76s22.25-3.63,36.01,5.14c13.37,8.53,26.19,22.67,36.09,39.83s15.75,35.33,16.45,51.17c.72,16.31-4.1,28.3-13.55,33.76-3.57,2.07-7.63,3.09-12.03,3.09ZM102.55,63.96c-3.71,0-7.09,.85-10.05,2.55-8.1,4.68-12.21,15.37-11.56,30.12,.67,15.21,6.32,32.74,15.92,49.35,9.59,16.61,21.94,30.27,34.78,38.46,12.44,7.93,23.76,9.73,31.86,5.05,8.1-4.68,12.21-15.37,11.56-30.12-.67-15.21-6.32-32.74-15.92-49.35-9.59-16.61-21.94-30.27-34.78-38.46-7.9-5.04-15.35-7.6-21.81-7.6Z"/>
  <path class="cls-2" d="M102.53,196.04c-4.4,0-8.45-1.02-12.03-3.09-9.46-5.46-14.27-17.45-13.55-33.76,.7-15.84,6.54-34.01,16.45-51.17s22.73-31.31,36.1-39.83c13.76-8.78,26.55-10.6,36.01-5.14,9.46,5.46,14.27,17.45,13.55,33.76-.7,15.84-6.54,34.01-16.45,51.17s-22.73,31.31-36.1,39.83c-8.56,5.46-16.74,8.23-23.99,8.23h0ZM153.45,63.96c-6.46,0-13.91,2.56-21.81,7.6-12.84,8.19-25.19,21.84-34.78,38.46-9.59,16.61-15.25,34.14-15.92,49.35-.65,14.74,3.45,25.44,11.56,30.12,8.1,4.68,19.42,2.88,31.86-5.05,12.84-8.19,25.19-21.84,34.78-38.46,9.59-16.61,15.24-34.14,15.92-49.35,.65-14.74-3.45-25.44-11.56-30.12-2.96-1.71-6.34-2.55-10.05-2.55h0Z"/>
  <path class="cls-2" d="M128,167.96c-19.81,0-38.47-4.03-52.54-11.34-14.48-7.53-22.46-17.69-22.46-28.62s7.98-21.08,22.46-28.62c14.07-7.32,32.73-11.34,52.54-11.34s38.47,4.03,52.54,11.34c14.48,7.53,22.46,17.69,22.46,28.62s-7.98,21.09-22.46,28.62c-14.07,7.32-32.73,11.34-52.54,11.34Zm0-75.92c-39.15,0-71,16.13-71,35.96s31.85,35.96,71,35.96,71-16.13,71-35.96-31.85-35.96-71-35.96h0Z"/>
  <circle class="cls-1" cx="128" cy="128" r="15"/>
  <path class="cls-2" d="M128,145c-9.37,0-17-7.63-17-17s7.63-17,17-17,17,7.63,17,17-7.63,17-17,17Zm0-30c-7.17,0-13,5.83-13,13s5.83,13,13,13,13-5.83,13-13-5.83-13-13-13Z"/>
</svg>