<svg id="Layer_1" data-name="Layer 1" xmlns="http://www.w3.org/2000/svg" xmlns:xlink="http://www.w3.org/1999/xlink" viewBox="0 0 727.79 512.15"><defs><style>.cls-1{fill:none;}.cls-2{fill:#fff;}.cls-3{clip-path:url(#clip-path);}</style><clipPath id="clip-path" transform="translate(-50.12 -223.53)"><rect class="cls-1" x="160.66" y="202.78" width="677.67" height="333.27"/></clipPath></defs><circle cx="427.39" cy="228.75" r="226.35"/><rect class="cls-2" x="238.61" y="93.52" width="372.37" height="222.95" rx="19.78"/><circle class="cls-2" cx="594.27" cy="88.28" r="10.58"/><g class="cls-3"><path d="M699.32,504.8a3.67,3.67,0,0,1,.32-1l.4-.81a4.14,4.14,0,0,1,.35-.84,13.27,13.27,0,0,1,.53-1.73,3.61,3.61,0,0,1,.31-1.2c14.55-70.47-1.08-135.57-48.76-196.26-.44,2-.55,2.59-.69,3.17-6.15,24.91-22.95,38.1-48.49,38.11-22.84,0-45.67.08-68.5,0-12.42-.07-23.75,3-33.5,10.87-10.25,8.24-16.7,18.75-18.66,32.57,9.91,0,19.37.11,28.83-.12,1.32,0,2.81-1.5,3.88-2.63,13.5-14.24,30-22.81,49.51-24.3,49.18-3.75,88,36.16,82.15,85.17-3.69,31.1-21.32,52.62-50.81,62.7-29.92,10.23-56.69,3-79.53-18.89a11,11,0,0,0-6.75-3q-31.25-.35-62.49,0a10.9,10.9,0,0,0-6.78,2.9c-12.39,12.16-26.83,20.23-44.16,22.39-30.44,3.79-55.45-6.51-73-31.49-17.84-25.31-19.36-52.92-4.72-80.2,24.73-46.05,86.36-53.63,122.66-15.8a11.7,11.7,0,0,0,7.17,3.14c7.31.41,14.67,0,22,.21,3.53.1,5-.72,5.85-4.64,5.93-27.62,28.42-45.56,56.53-45.56,24,0,48,.09,72,0,22.31-.12,39-15.68,40.56-37.88a8.6,8.6,0,0,0-2.34-6.09c-8.37-7.85-16.54-16-25.68-22.93-53.86-40.61-114.23-54.86-180.58-43-46.59,8.32-86.55,29.88-119.58,63.51-37.76,38.43-59.51,84.7-64.5,138.6-2.54,27.42-.72,54.51,7,81,4,13.79,9.32,27.19,14.19,41.19l-8.36,6.64c5.6,4.61,10.64,11.85,11.9,18.21.28,1.44.54,2.89.78,4.33a65.29,65.29,0,0,0,2.26,7.62c5.5,11.62,12.56,22.46,19.61,33.2s13.49,22.16,21.08,32.68a138.56,138.56,0,0,0,17.44,17.66,152,152,0,0,0,24.24,14,176.18,176.18,0,0,0,23.46,7.16c.95-3.3,2-6.69,3.12-10.66,3.64,4.79,6.92,9.06,10.08,13.26l.8.13c23,2.5,46.23,1.69,69.25-.36,8.25-.73,16.49-1.65,24.74-2.64.1-.32.21-.65.31-1,1.08-3.67,2.25-7.33,3.08-11.06.57-2.49,1.75-3.38,4.32-3.76,9.84-1.44,19.65-3.13,29.44-4.92,4.13-.76,8.16-2,13.09-3.26-1.52,5.47-2.8,9.91-4,14.37a17.62,17.62,0,0,0-.6,3.92c10.39-1.21,20.79-2.25,31.22-2.94H549.62c3.69-12.82,7.41-25.73,11.13-38.63,9.61-33.38,19.3-66.74,28.75-100.16,1-3.42,2.41-4.35,5.81-4.37,8.65,0,17.3-.55,26-.86,1.62,0,3.25,0,5.5,0l-14.58,53c5.28,0,10.18.24,15-.19,1.06-.1,2.3-2.46,2.77-4,4.61-14.92,9.06-29.9,13.56-44.85.48-1.57,1-3.12,1.7-5.25h35.31c-.27,1.25-.52,2.8-.95,4.3-12.81,44.74-25.7,89.46-38.35,134.25-1.08,3.81-2.67,5-6.42,4.91-10.13-.2-20.26-.07-31-.07,4.66-17,9.45-34.46,14.51-52.88-5.52.31-10.3.29-15,1-1.26.2-2.66,2.55-3.15,4.17-4.51,14.78-9,29.57-13.08,44.48-.64,2.35-1.6,3.72-3,4.44,4.85-.17,9.71-.26,14.58-.23,18.31.14,36.6.57,54.87.66,1-3.31,2-6.73,3.24-10.76,3,3.88,5.82,7.38,8.47,10.77,3.13,0,6.25,0,9.37-.09q-.15-3.47,0-7c-4.94-4.81-10.13-13.13-9.19-16.46Q679.65,610.3,693.88,560a39.78,39.78,0,0,1-.72-18.54,3.45,3.45,0,0,1-3-1.41,1.59,1.59,0,0,1-2.33-1.67c0-.25.12-.49.17-.73a1.58,1.58,0,0,1-.11-.37.16.16,0,0,1-.16-.1,1.25,1.25,0,0,1,0-.74,15.88,15.88,0,0,1,1.66-3.8c.4-1.23.82-2.45,1.27-3.67,1.17-3.17,2.27-6.36,3.4-9.53s2.26-6,3.22-9.14a47.19,47.19,0,0,1,2-5.41ZM521.48,548.22c-2.44,8.8-5.24,17.52-7.28,26.42-1,4.47-3.19,5.77-7.42,5.85-14.31.27-28.62.94-42.93,1.13-3.46,0-5.06,1.06-5.88,4.39-1.05,4.32-2.63,8.5-4.13,13.2l54.25-1.83L497.7,633.73l-54.34,2c-1.45,5.54-2.89,11.06-4.46,17.09l53-1.59-10.31,36.29-33.43,1.14q-16.21.55-32.44,1.08c-.5,0-1,0-1.5,0-6.87,0-18.08-14.53-16.2-21.09,8.94-31.33,18.11-62.6,26.71-94,2-7.47,5.15-13.47,11.86-17.41a8.39,8.39,0,0,0,2-1.54c7.77-8.51,17.56-10.5,28.75-10.42,17,.13,33.93-1,50.89-1.59,1.14,0,2.29,0,4,0C522,545.46,521.85,546.87,521.48,548.22Z" transform="translate(-50.12 -223.53)"/><path d="M626.19,436.51A55.51,55.51,0,1,1,570.75,381,55.29,55.29,0,0,1,626.19,436.51Zm-59.08,14.92a12.35,12.35,0,0,0-12.62-12.52,12.65,12.65,0,0,0,.29,25.29C561.89,464.14,567.15,458.69,567.11,451.43Zm32.18,0a12.35,12.35,0,0,0-12.7-12.55,12.9,12.9,0,0,0-12.44,12.54,12.68,12.68,0,0,0,12.68,12.75A12.28,12.28,0,0,0,599.29,451.46Zm-32.18-30.3a12.29,12.29,0,0,0-12.61-12.59A12.54,12.54,0,0,0,542.06,421a12.37,12.37,0,0,0,12.49,12.76A12.1,12.1,0,0,0,567.11,421.16Zm32.19.19c0-7.34-5.24-12.74-12.43-12.77a12.74,12.74,0,0,0-12.72,12.7,12.53,12.53,0,0,0,12.9,12.45A12,12,0,0,0,599.3,421.35Z" transform="translate(-50.12 -223.53)"/><path d="M440.19,436.42A55.51,55.51,0,1,1,384.67,381,55.25,55.25,0,0,1,440.19,436.42Zm-23.88,1.31c-.18-10.17,1.87-9.92-10-9.84-1.32,0-2.65.25-4,.35-7.18.59-8.21-.34-8.22-7.37,0-2,0-4,0-6-.13-9.57,1.5-9-9.2-9-11.14,0-9.64-.63-9.78,9.54-.21,14.37,2.4,12.81-13.09,12.9-10.42.07-9-.72-9,9.21,0,10.48-1.46,9.68,9.54,9.69,12.52,0,12.52,0,12.52,12.75,0,9.53,0,9.55,9.43,9.52,10.51,0,9.73,1.1,9.74-9.61,0-12.65,0-12.65,12.71-12.66C417.76,447.21,416.17,447.75,416.31,437.73Z" transform="translate(-50.12 -223.53)"/><path d="M227.17,458.71c.91-66.36,19-118.69,55.21-164.63,1-1.3,2.06-3,3.44-3.48,1.62-.53,4.2-.54,5.3.44s1.26,3.46,1.13,5.23c-.08,1.12-1.43,2.17-2.25,3.21q-58.24,74-52.75,168c.59,10.26,2.47,20.46,4.05,30.65.54,3.52.07,6.22-3.67,6.83-3.5.57-5.06-1.9-5.45-5.07C230.18,483.56,228.2,467.23,227.17,458.71Z" transform="translate(-50.12 -223.53)"/><path d="M591.32,227.08c2,1,3.41,1.53,4.71,2.24q81.27,44.1,115.86,129.86c.25.61.48,1.24.69,1.87,1,2.86.76,5.39-2.46,6.55s-4.94-.43-6.23-3.26c-4.48-9.82-8.57-19.87-13.73-29.33-23-42.21-56-74.48-98.24-97.35-1.31-.71-3.12-1.25-3.69-2.37a7.72,7.72,0,0,1-.74-5.44C587.93,228.57,590.1,227.9,591.32,227.08Z" transform="translate(-50.12 -223.53)"/><path d="M250.71,532.52c-1.26,1.23-2.48,3.39-3.87,3.51-1.72.15-4.53-.94-5.19-2.31a48,48,0,0,1-4-12.18c-.27-1.51,1.32-4.29,2.74-4.89s4.71.41,5.27,1.6C247.73,522.54,248.93,527.2,250.71,532.52Z" transform="translate(-50.12 -223.53)"/><path d="M480.22,442.31v-5.55h19.27v5.55Z" transform="translate(-50.12 -223.53)"/><path d="M457.29,436.65H476.9c.09,1.82.17,3.53.27,5.63H457.54C457.47,440.62,457.39,438.92,457.29,436.65Z" transform="translate(-50.12 -223.53)"/><path d="M455.58,448h45.94v0H455.6Z" transform="translate(-50.12 -223.53)"/><path d="M501.52,431.07H455.57v0h46Z" transform="translate(-50.12 -223.53)"/><path class="cls-2" d="M157.23,709.64,187.68,603.7H169.87c-5.22,18.07-10.35,35.75-15.44,53.44-4.78,16.61-9.59,33.22-14.24,49.86-.83,3-2.13,4.43-5.4,4.38-10.43-.14-20.87,0-31.9,0,10-34.92,20.21-70.28,30.61-106.44-5.51.28-10.44.25-15.25,1-1.18.18-2.38,2.77-2.88,4.46C106,642.57,96.59,674.8,87.55,707.13c-1.34,4.81-3.45,6.3-8.18,6.16-9.6-.29-19.21-.09-29.25-.09.29-1.28.57-2.86,1-4.39q16.43-58.57,33-117.1c.67-2.35,2.67-4.36,4.19-6.42.57-.77,1.68-1.12,2.33-1.86,11-12.67,25.43-14.74,41.25-14.92,9.12-.1,15.62,1.58,19.87,9.89,1.18,2.32,3.18,4.22,5.13,6.73,4.9-3.8,9.94-7.07,14.19-11.16,5.54-5.33,11.88-7.29,19.36-7.18,7.32.11,14.65-.48,22-.37,1.84,0,3.67,1.56,5.49,2.41.14.07.22.25.33.38,10.6,13.22,10.64,13.23,6.06,29.54-10,35.52-20.05,71-30,106.56-.92,3.28-2.33,4.5-5.83,4.41C178.21,709.48,167.93,709.64,157.23,709.64Z" transform="translate(-50.12 -223.53)"/><path class="cls-2" d="M567.11,451.43c0,7.26-5.22,12.71-12.33,12.77a12.65,12.65,0,1,1,12.33-12.77Z" transform="translate(-50.12 -223.53)"/><path class="cls-2" d="M599.29,451.46a12.28,12.28,0,0,1-12.46,12.74,12.68,12.68,0,0,1-12.68-12.75,12.9,12.9,0,0,1,12.44-12.54A12.35,12.35,0,0,1,599.29,451.46Z" transform="translate(-50.12 -223.53)"/><path class="cls-2" d="M567.11,421.16a12.1,12.1,0,0,1-12.56,12.57A12.37,12.37,0,0,1,542.06,421a12.54,12.54,0,0,1,12.44-12.4A12.29,12.29,0,0,1,567.11,421.16Z" transform="translate(-50.12 -223.53)"/><path class="cls-2" d="M599.3,421.35a12,12,0,0,1-12.25,12.38,12.53,12.53,0,0,1-12.9-12.45,12.74,12.74,0,0,1,12.72-12.7C594.06,408.61,599.32,414,599.3,421.35Z" transform="translate(-50.12 -223.53)"/><path class="cls-2" d="M416.31,437.73c-.14,10,1.45,9.48-9.29,9.48-12.71,0-12.7,0-12.71,12.66,0,10.71.77,9.58-9.74,9.61-9.43,0-9.43,0-9.43-9.52,0-12.74,0-12.73-12.52-12.75-11,0-9.55.79-9.54-9.69,0-9.93-1.46-9.14,9-9.21,15.49-.09,12.88,1.47,13.09-12.9.14-10.17-1.36-9.55,9.78-9.54,10.7,0,9.07-.57,9.2,9,0,2,0,4,0,6,0,7,1,8,8.22,7.37,1.32-.1,2.65-.34,4-.35C418.18,427.81,416.13,427.56,416.31,437.73Z" transform="translate(-50.12 -223.53)"/><path class="cls-2" d="M777.56,735.68H760c1.74-5.91,8.1-9.9,13.5-8.5C777.79,728.3,778.47,731.27,777.56,735.68Z" transform="translate(-50.12 -223.53)"/></g></svg>